<svg width="1018" height="205" viewBox="0 0 1018 205" fill="none" xmlns="http://www.w3.org/2000/svg">
<path d="M143.094 122.53C143.094 112.973 144.613 104.017 147.639 95.6732C150.666 87.3418 154.807 80.0518 160.063 73.8032C165.307 67.5669 171.433 62.6415 178.429 59.0272C185.425 55.4128 192.886 53.5995 200.826 53.5995H212.722C213.654 53.5995 214.352 53.3422 214.818 52.8154C215.283 52.2885 215.516 51.6759 215.516 50.9775H216.043L229.508 66.0231L229.153 66.1947C227.057 63.977 224.926 62.2005 222.769 60.8527C220.613 59.5173 218.542 58.4881 216.557 57.7897C214.573 57.0913 212.71 56.6258 210.958 56.393C209.206 56.1602 207.687 56.0377 206.413 56.0377H204.134C196.783 56.0377 189.909 57.7897 183.489 61.2816C177.069 64.7734 171.531 69.5395 166.875 75.543C162.207 81.5466 158.544 88.5793 155.848 96.6289C153.153 104.679 151.83 113.304 151.83 122.518C151.83 131.731 153.165 140.357 155.848 148.406C158.531 156.456 162.207 163.476 166.875 169.48C171.543 175.483 177.081 180.237 183.489 183.741C189.897 187.246 196.783 188.985 204.134 188.985C209.5 188.985 214.634 188.054 219.522 186.18C224.423 184.317 228.969 181.695 233.171 178.314L233.343 178.841C228.675 182.81 223.578 185.898 218.04 188.115C212.502 190.333 206.584 191.436 200.287 191.436C192.47 191.436 185.069 189.635 178.074 186.008C171.078 182.394 165.013 177.468 159.879 171.232C154.745 164.996 150.666 157.706 147.639 149.362C144.601 141.031 143.094 132.074 143.094 122.505V122.53Z" fill="#231F20"/>
<path d="M275.284 53.5996C281.692 53.5996 287.732 55.4129 293.392 59.0273C299.053 62.6417 303.978 67.567 308.169 73.8033C312.371 80.0397 315.667 87.3664 318.056 95.7591C320.445 104.152 321.646 113.071 321.646 122.518C321.646 131.964 320.445 141.031 318.056 149.374C315.667 157.718 312.371 165.008 308.169 171.244C303.966 177.481 299.041 182.418 293.392 186.02C287.732 189.635 281.704 191.448 275.284 191.448C268.864 191.448 262.86 189.647 257.261 186.02C251.662 182.406 246.761 177.481 242.571 171.244C238.368 165.008 235.048 157.718 232.598 149.374C230.147 141.043 228.922 132.087 228.922 122.518C228.922 112.949 230.147 104.152 232.598 95.7591C235.048 87.3664 238.368 80.0397 242.571 73.8033C246.773 67.567 251.662 62.6417 257.261 59.0273C262.86 55.4129 268.864 53.5996 275.284 53.5996ZM275.284 188.998C280.65 188.998 285.637 187.246 290.244 183.754C294.85 180.25 298.82 175.508 302.14 169.492C305.461 163.489 308.083 156.456 310.019 148.419C311.942 140.369 312.91 131.744 312.91 122.53C312.91 113.316 311.942 104.691 310.019 96.6413C308.095 88.5916 305.473 81.5712 302.14 75.5554C298.82 69.5519 294.85 64.798 290.244 61.2939C285.637 57.7898 280.65 56.05 275.284 56.05C269.917 56.05 264.968 57.8021 260.41 61.2939C255.852 64.7858 251.895 69.5519 248.513 75.5554C245.131 81.5589 242.473 88.5916 240.549 96.6413C238.626 104.691 237.67 113.316 237.67 122.53C237.67 131.744 238.626 140.369 240.549 148.419C242.473 156.468 245.131 163.489 248.513 169.492C251.895 175.496 255.864 180.25 260.41 183.754C264.955 187.258 269.917 188.998 275.284 188.998Z" fill="#231F20"/>
<path d="M459.073 53.5996C465.481 53.5996 471.521 55.4129 477.182 59.0273C482.842 62.6417 487.767 67.567 491.958 73.8033C496.16 80.0397 499.456 87.3664 501.845 95.7591C504.234 104.152 505.435 113.071 505.435 122.518C505.435 131.964 504.234 141.031 501.845 149.374C499.456 157.718 496.16 165.008 491.958 171.244C487.755 177.481 482.83 182.418 477.182 186.02C471.521 189.635 465.493 191.448 459.073 191.448C452.653 191.448 446.649 189.647 441.05 186.02C435.451 182.406 430.55 177.481 426.36 171.244C422.157 165.008 418.837 157.718 416.387 149.374C413.936 141.043 412.711 132.087 412.711 122.518C412.711 112.949 413.936 104.152 416.387 95.7591C418.837 87.3664 422.157 80.0397 426.36 73.8033C430.562 67.567 435.451 62.6417 441.05 59.0273C446.649 55.4129 452.653 53.5996 459.073 53.5996ZM459.073 188.998C464.439 188.998 469.426 187.246 474.033 183.754C478.64 180.25 482.609 175.508 485.93 169.492C489.25 163.489 491.872 156.456 493.808 148.419C495.731 140.369 496.699 131.744 496.699 122.53C496.699 113.316 495.731 104.691 493.808 96.6413C491.884 88.5916 489.262 81.5712 485.93 75.5554C482.609 69.5519 478.64 64.798 474.033 61.2939C469.426 57.7898 464.439 56.05 459.073 56.05C453.706 56.05 448.757 57.8021 444.199 61.2939C439.641 64.7858 435.684 69.5519 432.302 75.5554C428.921 81.5589 426.262 88.5916 424.338 96.6413C422.415 104.691 421.459 113.316 421.459 122.53C421.459 131.744 422.415 140.369 424.338 148.419C426.262 156.468 428.921 163.489 432.302 169.492C435.684 175.496 439.653 180.25 444.199 183.754C448.744 187.258 453.706 188.998 459.073 188.998Z" fill="#231F20"/>
<path d="M326.461 122.53C326.461 112.973 327.98 104.017 331.006 95.6732C334.033 87.3418 338.174 80.0518 343.43 73.8032C348.674 67.5669 354.8 62.6415 361.796 59.0272C368.792 55.4128 376.254 53.5995 384.193 53.5995H396.09C397.021 53.5995 397.719 53.3422 398.185 52.8154C398.65 52.2885 398.883 51.6759 398.883 50.9775H399.41L412.875 66.0231L412.52 66.1947C410.425 63.977 408.293 62.2005 406.136 60.8527C403.98 59.5173 401.909 58.4881 399.925 57.7897C397.94 57.0913 396.077 56.6258 394.325 56.393C392.573 56.1602 391.054 56.0377 389.78 56.0377H387.501C380.15 56.0377 373.276 57.7897 366.856 61.2816C360.436 64.7734 354.898 69.5395 350.242 75.543C345.574 81.5466 341.911 88.5793 339.215 96.6289C336.52 104.679 335.197 113.304 335.197 122.518C335.197 131.731 336.532 140.357 339.215 148.406C341.899 156.456 345.574 163.476 350.242 169.48C354.91 175.483 360.448 180.237 366.856 183.741C373.264 187.246 380.15 188.985 387.501 188.985C392.867 188.985 398.001 188.054 402.89 186.18C407.79 184.317 412.336 181.695 416.538 178.314L416.71 178.841C412.042 182.81 406.945 185.898 401.407 188.115C395.869 190.333 389.951 191.436 383.654 191.436C375.837 191.436 368.437 189.635 361.441 186.008C354.445 182.394 348.38 177.468 343.246 171.232C338.113 164.996 334.033 157.706 331.006 149.362C327.968 141.031 326.461 132.074 326.461 122.505V122.53Z" fill="#231F20"/>
<path d="M510.648 122.552C510.648 112.996 512.168 104.039 515.194 95.6957C518.22 87.3643 522.361 80.0742 527.618 73.8257C532.862 67.5893 538.988 62.664 545.984 59.0496C552.979 55.4353 560.441 53.622 568.38 53.622H580.277C581.208 53.622 581.907 53.3647 582.372 52.8378C582.838 52.311 583.071 51.6984 583.071 51H583.598L597.063 66.0456L596.707 66.2171C594.612 63.9995 592.48 62.2229 590.324 60.8752C588.168 59.5397 586.097 58.5105 584.112 57.8122C582.127 57.1138 580.265 56.6482 578.513 56.4154C576.761 56.1826 575.242 56.0601 573.967 56.0601H571.688C564.337 56.0601 557.464 57.8122 551.044 61.304C544.624 64.7959 539.086 69.562 534.43 75.5655C529.762 81.569 526.098 88.6017 523.403 96.6514C520.707 104.701 519.384 113.326 519.384 122.54C519.384 131.754 520.72 140.379 523.403 148.429C526.086 156.478 529.762 163.499 534.43 169.502C539.098 175.506 544.636 180.26 551.044 183.764C557.451 187.268 564.337 189.008 571.688 189.008C577.055 189.008 582.189 188.077 587.077 186.202C591.978 184.34 596.523 181.718 600.726 178.336L600.897 178.863C596.229 182.833 591.133 185.92 585.595 188.138C580.057 190.355 574.139 191.458 567.841 191.458C560.024 191.458 552.624 189.657 545.628 186.031C538.632 182.416 532.567 177.491 527.434 171.254C522.3 165.018 518.22 157.728 515.194 149.384C512.155 141.053 510.648 132.097 510.648 122.528V122.552Z" fill="#231F20"/>
<path d="M666.815 53.6213C667.514 53.6213 668.102 53.364 668.568 52.8372C669.033 52.3103 669.266 51.759 669.266 51.1709H669.621L671.373 66.045L670.846 66.2165C670.381 63.1902 668.886 60.7398 666.387 58.8652C663.875 57.0029 661.106 56.0717 658.08 56.0717H624.313C622.683 56.0717 621.372 56.6231 620.38 57.738C619.388 58.853 618.897 60.213 618.897 61.8547V121.326H649.515C652.199 121.326 654.355 120.31 655.985 118.263C657.614 116.23 658.435 113.865 658.435 111.182H658.962V133.75H658.435C658.435 131.067 657.614 128.739 655.985 126.754C654.355 124.769 652.199 123.777 649.515 123.777H618.897V183.249C618.897 184.878 619.449 186.25 620.564 187.365C621.666 188.48 623.039 189.032 624.68 189.032H664.561C667.587 189.032 670.418 188.1 673.052 186.226C675.674 184.364 677.107 181.913 677.34 178.875L677.867 179.046L676.115 194.092H675.759C675.759 193.393 675.527 192.781 675.061 192.254C674.596 191.727 674.007 191.47 673.309 191.47H601.242V190.943C604.048 190.943 606.4 190.012 608.324 188.137C610.247 186.275 611.215 183.996 611.215 181.313V63.7538C611.215 60.8378 610.247 58.4731 608.324 56.6721C606.4 54.871 604.036 53.9644 601.242 53.9644V53.6091H666.84L666.815 53.6213Z" fill="#231F20"/>
<path d="M673.984 53.9774V53.6221H699.003V53.9774C697.717 54.0999 696.614 54.443 695.683 55.0311C694.862 55.4966 694.2 56.1705 693.674 57.0404C693.147 57.9103 693.061 59.1723 693.416 60.8018L722.809 172.762L750.977 66.2295C751.552 63.9016 752.373 61.7942 753.427 59.9319C754.481 58.3024 755.877 56.8444 757.63 55.5579C759.382 54.2714 761.599 53.6343 764.282 53.6343V66.2295H763.756C763.756 64.8327 763.29 63.6688 762.359 62.7254C761.428 61.7942 760.313 61.3286 759.039 61.3286C757.642 61.3286 756.441 61.831 755.449 62.8112C754.456 63.8036 753.782 64.943 753.439 66.2172L720.898 189.89C720.432 191.52 719.844 193.186 719.146 194.877C718.447 196.567 717.626 198.087 716.695 199.422C715.764 200.758 714.625 201.873 713.289 202.743C711.954 203.612 710.459 204.053 708.829 204.053C707.31 204.053 706.146 203.674 705.338 202.914C704.517 202.154 704.112 201.248 704.112 200.206C704.112 199.275 704.492 198.43 705.252 197.67C706.011 196.911 706.857 196.531 707.788 196.531C709.074 196.531 710.067 196.972 710.765 197.842C711.464 198.712 711.758 199.741 711.635 200.905C712.566 200.317 713.436 199.532 714.257 198.54C715.066 197.548 715.776 196.469 716.352 195.305C717.051 194.019 717.724 192.353 718.362 190.319C718.999 188.285 719.084 186.386 718.619 184.634L686.604 63.583C686.482 63.3502 686.224 62.7131 685.82 61.6595C685.403 60.6058 684.705 59.5031 683.725 58.3391C682.732 57.1752 681.446 56.1582 679.878 55.2761C678.309 54.4062 676.349 53.9651 674.021 53.9651L673.984 53.9774Z" fill="#231F20"/>
<path d="M796.503 53.6221V53.9774C793.71 53.9774 791.345 54.9085 789.422 56.7709C787.498 58.6332 786.543 60.9121 786.543 63.5953V183.249C786.543 184.879 787.094 186.251 788.209 187.366C789.312 188.481 790.684 189.032 792.326 189.032H825.909C828.935 188.922 831.704 187.93 834.216 186.055C836.715 184.193 838.21 181.804 838.675 178.888H839.202L837.45 193.933H837.095C837.095 193.345 836.838 192.794 836.311 192.267C835.784 191.74 835.232 191.483 834.644 191.483H768.875V190.956C771.681 190.956 774.033 190.049 775.957 188.248C777.88 186.447 778.848 184.132 778.848 181.338V63.7791C778.848 60.9856 777.88 58.6454 775.957 56.7831C774.033 54.9208 771.668 53.9896 768.875 53.9896V53.6343H796.516L796.503 53.6221Z" fill="#231F20"/>
<path d="M881.057 53.6221C887.465 53.6221 893.505 55.4354 899.166 59.0497C904.826 62.6641 909.752 67.5895 913.942 73.8258C918.144 80.0621 921.44 87.3889 923.829 95.7816C926.219 104.174 927.419 113.094 927.419 122.54C927.419 131.987 926.219 141.053 923.829 149.397C921.44 157.741 918.144 165.031 913.942 171.267C909.739 177.503 904.814 182.441 899.166 186.043C893.505 189.657 887.477 191.471 881.057 191.471C874.637 191.471 868.634 189.67 863.034 186.043C857.435 182.429 852.534 177.503 848.344 171.267C844.142 165.031 840.821 157.741 838.371 149.397C835.921 141.065 834.695 132.109 834.695 122.54C834.695 112.971 835.921 104.174 838.371 95.7816C840.821 87.3889 844.142 80.0621 848.344 73.8258C852.547 67.5895 857.435 62.6641 863.034 59.0497C868.634 55.4354 874.637 53.6221 881.057 53.6221ZM881.057 189.02C886.424 189.02 891.41 187.268 896.017 183.776C900.624 180.272 904.594 175.531 907.914 169.515C911.234 163.511 913.856 156.479 915.792 148.441C917.716 140.392 918.684 131.766 918.684 122.552C918.684 113.339 917.716 104.713 915.792 96.6637C913.868 88.6141 911.246 81.5936 907.914 75.5779C904.594 69.5743 900.624 64.8205 896.017 61.3164C891.41 57.8123 886.424 56.0725 881.057 56.0725C875.691 56.0725 870.741 57.8245 866.183 61.3164C861.625 64.8082 857.668 69.5743 854.286 75.5779C850.905 81.5814 848.246 88.6141 846.323 96.6637C844.399 104.713 843.443 113.339 843.443 122.552C843.443 131.766 844.399 140.392 846.323 148.441C848.246 156.491 850.905 163.511 854.286 169.515C857.668 175.518 861.638 180.272 866.183 183.776C870.729 187.28 875.691 189.02 881.057 189.02Z" fill="#231F20"/>
<path d="M1017.08 53.6221V54.1489C1014.4 54.1489 1012.07 54.9943 1010.08 56.6851C1008.1 58.3759 1007.11 60.569 1007.11 63.24V191.471H1004.66L941.681 63.4238V182.024C941.681 184.707 942.674 186.901 944.658 188.579C946.643 190.27 948.971 191.115 951.654 191.115V191.471H929.086V191.115C931.769 191.115 934.097 190.27 936.082 188.579C938.067 186.888 939.059 184.707 939.059 182.024V63.7668C939.059 60.9733 938.091 58.6699 936.168 56.8566C934.244 55.0556 931.879 54.1489 929.086 54.1489V53.6221H944.303L1004.66 176.425V63.0684C1004.66 60.3852 1003.64 58.2289 1001.59 56.5993C999.548 54.9698 997.195 54.1489 994.512 54.1489V53.6221H1017.08Z" fill="#231F20"/>
<path d="M83.4392 48.1046C91.1733 50.6443 97.6025 56.1364 102.79 62.2952C115.776 77.9779 121.442 99.3114 118.8 119.407C115.012 144.232 95.3428 162.074 77.9966 178.487C76.2143 180.233 74.4956 181.979 72.9997 183.947C72.1085 185.217 71.4401 186.582 70.3898 187.757C67.016 191.852 62.6556 191.503 58.0724 189.852C53.9985 188.423 50.1155 186.741 45.9779 185.661C38.8166 183.788 36.0794 179.884 32.9603 173.63C30.7642 169.217 28.0588 165.122 24.3668 161.82C11.2856 151.058 2.02372 135.344 0.273187 118.391C-1.541 101.28 5.9067 84.6764 15.9006 71.1842C26.7539 56.6126 42.1267 44.2315 60.364 40.7712L63.3877 40.3268L66.4113 40.041C64.8517 40.6442 63.6423 41.8506 62.4328 42.9299C58.8681 46.3586 55.8445 50.3586 53.3301 54.5809C51.2613 58.1047 49.5426 61.8508 48.365 65.7556C47.6329 68.1048 47.1873 70.4858 46.8372 72.9302L45.5959 72.708C49.2243 58.1999 64.5016 41.9458 80.6065 45.057C80.6065 45.057 81.7491 45.2982 81.434 45.5649C65.17 43.3427 51.7705 59.0571 46.8054 72.9937L45.5641 72.7715C45.5959 71.0572 45.7551 69.3746 46.0415 67.6921C47.6329 59.3111 52.1843 51.6919 58.1361 45.6919C59.3137 44.4855 60.5868 43.3744 61.9554 42.3585C63.324 41.3744 64.7244 40.3267 66.4113 39.9775C47.2192 42.549 31.0506 55.1205 19.5926 70.1048C11.8585 80.3271 5.5566 92.2003 3.36048 104.867C2.40565 110.677 2.50113 116.677 3.55145 122.486C6.25681 137.09 14.6593 150.487 26.1173 159.915C28.4408 162.042 30.4777 164.455 32.1964 167.09C33.3104 168.836 34.2971 170.677 35.2201 172.487C36.9706 175.947 38.6893 179.439 42.0631 181.439C43.6544 182.455 45.5641 183.027 47.3783 183.534C49.3516 184.106 51.2931 184.773 53.2028 185.503C56.0354 186.55 58.7408 187.757 61.6371 188.423C64.438 189.09 66.8887 188.519 68.7029 186.233C69.6577 185.154 70.3579 183.725 71.2491 182.582C72.8087 180.519 74.6865 178.677 76.5325 176.899C91.0778 163.312 106.705 149.502 114.248 130.645C123.256 107.438 116.349 77.2477 99.5122 59.1841C94.9608 54.4539 89.6456 50.2634 83.4392 48.1046Z" fill="black"/>
<path d="M98.5679 32.8184C97.0976 33.2586 96.029 33.1962 95.3236 32.753C92.6752 31.0962 94.7831 24.0425 97.8589 16.8586L99.3675 13.2604L96.8503 16.3179C86.7044 28.3449 79.4818 29.2657 79.7338 11.691C79.7815 8.18717 80.0882 4.67916 80.4535 1.17274L79.2946 0.973938C75.4554 15.5046 67.529 35.4838 58.3728 9.62842L57.1323 5.92227C57.2075 9.66387 57.3772 13.8211 57.0773 17.519C56.8123 19.923 56.5732 22.6738 55.1429 24.6779C51.947 28.4761 45.8907 19.3261 44.3542 16.9962C44.3542 16.9962 42.9163 14.5014 42.9045 14.5011L43.2624 17.3573L45.6745 36.8795L45.8673 38.0122L47.0248 37.8314C60.6279 35.3864 72.7643 34.1184 85.6815 40.0717C89.8207 41.8358 93.8083 43.9865 97.8333 46.06C101.019 40.8997 108.181 27.8878 108.181 27.8878C108.181 27.8878 100.749 32.1742 98.5796 32.8187L98.5679 32.8184ZM47.8069 35.4414C47.4884 33.736 45.5889 23.5264 44.9004 19.8463C47.2002 23.09 50.5482 27.1434 54.1011 26.6702C58.1214 25.4394 58.4016 18.1242 58.385 13.0892C63.6767 26.159 71.1382 27.7116 77.188 11.4547C77.7576 9.96312 78.2573 8.44733 78.7453 6.93121C78.0834 16.6138 78.4384 31.3138 89.7593 24.5428C91.9028 23.1273 93.7363 21.4355 95.4435 19.6287C93.2036 25.4732 92.3196 30.7628 94.1194 32.9213C94.9852 33.9606 96.4346 34.29 98.7592 33.5715C100.752 32.9445 107.262 28.7894 107.262 28.7894C104.3 33.5093 100.275 40.1428 97.5199 45.0357C93.7999 42.9927 90.094 40.8608 86.1794 39.0582C73.4827 32.776 61.3385 33.4633 47.8186 35.4417L47.8069 35.4414Z" fill="#191919"/>
<path d="M29.302 105.337C28.1978 105.945 27.3642 106.438 26.5089 106.865C23.8079 108.212 21.7943 109.471 19.6887 110.232C17.5831 110.993 15.5749 110.402 14.7629 109.044C13.4205 106.793 12.9929 105.857 11.7967 103.535C10.5409 101.099 11.7858 99.7955 14.8604 98.465C18.0702 97.0796 21.7402 94.5992 24.6415 92.1953C32.2087 86.3364 34.3955 82.4213 34.9477 81.5452C36.5228 79.0428 38.2658 78.9004 39.7922 81.4028C41.5298 84.2556 43.0508 87.2508 44.5447 90.246C45.1618 91.4233 44.7558 92.3103 44.5177 92.8469C43.2998 95.6122 41.8437 99.1604 41.362 101.279C39.7002 108.65 38.9965 113.14 37.2157 120.477C35.0884 129.238 32.2141 137.764 28.6741 146.048C28.1491 147.275 27.3534 148.436 26.4711 149.438C25.3722 150.686 23.7321 150.44 22.8444 149.011C21.4641 146.777 20.1001 144.526 18.8064 142.243C17.6101 140.135 17.9728 138.174 19.2935 136.209C20.2895 134.725 21.004 133.005 21.6265 131.308C24.5603 123.281 29.2262 106.049 29.2966 105.331L29.302 105.337Z" fill="white"/>
<path d="M29.0811 105.347C27.649 106.244 25.6658 107.389 24.1744 108.167C21.6346 109.458 18.8084 111.614 15.8309 110.431C15.096 110.134 14.4691 109.539 14.0854 108.837L13.7126 108.216C12.9885 107.017 12.2914 105.65 11.6375 104.407C9.71374 101.285 10.989 99.6212 14.0368 98.2383C15.8093 97.4874 17.4574 96.6123 19.0732 95.6021C22.2884 93.5709 25.293 91.1562 28.184 88.709C30.3185 86.8237 32.3558 84.7979 33.9769 82.4534C34.7497 81.3136 35.6737 79.5957 37.3273 79.5957C38.9917 79.72 39.7266 81.3946 40.4831 82.6263C41.9043 85.0086 43.2769 87.7745 44.5414 90.2594C45.0764 91.1508 44.9197 92.323 44.4441 93.182C43.3147 95.7966 42.207 98.476 41.5855 101.258C39.0457 115.439 35.9871 129.646 30.3347 142.962C29.4863 145.015 28.692 147.154 27.1951 148.829C26.671 149.499 25.9306 150.136 24.9958 150.228C23.7421 150.39 22.5803 149.542 22.0291 148.505L19.0678 143.551L18.3274 142.314C17.4736 141.017 17.0846 139.246 17.5547 137.722C18.1221 135.804 19.5595 134.416 20.2512 132.558C21.0131 130.84 21.6508 129.025 22.2939 127.226C24.7634 120.041 27.0979 112.7 29.0865 105.364L29.0811 105.347ZM29.2108 105.153C28.5191 108.416 27.1735 113.159 26.3251 116.416C25.32 120.122 24.2879 123.823 23.1423 127.496C22.1534 130.694 21.0726 134 19.1812 136.809C18.295 138.354 18.3923 140.202 19.4244 141.66L20.1701 142.887L23.1585 147.786C23.2936 148.008 23.38 148.148 23.5097 148.283C24.3365 149.234 25.4497 148.932 26.1252 147.932C27.5248 146.333 28.2273 144.345 29.027 142.417C30.4806 138.884 31.8046 135.297 33.0259 131.677C36.1925 122.645 37.9325 113.191 40.1211 103.873C40.5264 102.241 41.1316 99.8373 41.8017 98.3193C42.5312 96.5312 43.2985 94.7702 44.0875 93.0199C44.5252 92.1772 44.6711 91.2858 44.1848 90.4431C42.904 87.9797 41.5207 85.2193 40.0941 82.8586C39.5915 82.0428 39.143 81.1785 38.4567 80.6059C36.7383 79.1365 35.3009 81.427 34.5119 82.7937C32.907 85.2247 30.8697 87.3369 28.7352 89.3033C25.8442 91.8855 22.8504 94.3164 19.5919 96.4016C17.9654 97.4334 16.2254 98.3896 14.4583 99.1297C11.9077 100.291 10.8215 101.328 12.4535 103.986C13.0911 105.229 13.7666 106.585 14.4691 107.778C14.9122 108.551 15.2851 109.34 16.1605 109.707C18.8462 110.82 21.5427 108.751 23.942 107.708C25.4767 106.973 27.7301 105.844 29.2162 105.153H29.2108Z" fill="black"/>
</svg>
