<svg width="130" height="27" viewBox="0 0 130 27" fill="none" xmlns="http://www.w3.org/2000/svg">
<path d="M0 12.2438C0 10.6094 0.281487 9.07475 0.849005 7.64824C1.41652 6.22173 2.18837 4.97406 3.16904 3.90522C4.14971 2.83638 5.29383 1.99212 6.60139 1.3766C7.90895 0.756921 9.30276 0.449163 10.7874 0.449163H13.0121C13.1846 0.449163 13.3163 0.403412 13.4025 0.316075C13.4888 0.224579 13.5342 0.120608 13.5342 0H13.6341L16.1493 2.57437L16.0857 2.60348C15.6953 2.22502 15.2957 1.92142 14.8917 1.68852C14.4876 1.45978 14.1017 1.28511 13.7294 1.1645C13.3571 1.04389 13.0121 0.964868 12.6852 0.923279C12.3583 0.88169 12.0768 0.865055 11.8362 0.865055H11.4094C10.0383 0.865055 8.74886 1.16449 7.55026 1.76338C6.35167 2.36226 5.31653 3.17741 4.44482 4.20466C3.57311 5.23191 2.88753 6.43384 2.38358 7.8146C1.88416 9.1912 1.62992 10.6676 1.62992 12.248C1.62992 13.8284 1.87962 15.3006 2.38358 16.6814C2.88299 18.058 3.57311 19.2599 4.44482 20.2913C5.31653 21.3186 6.35167 22.1337 7.55026 22.7326C8.74886 23.3315 10.0337 23.6309 11.4094 23.6309C12.4128 23.6309 13.3707 23.4729 14.2879 23.1527C15.205 22.8324 16.054 22.3833 16.8394 21.8052L16.8712 21.8967C15.9995 22.5746 15.046 23.1028 14.0109 23.4854C12.9757 23.8638 11.8679 24.0552 10.692 24.0552C9.23011 24.0552 7.84993 23.7474 6.54237 23.1277C5.2348 22.508 4.09974 21.6638 3.14177 20.5991C2.1838 19.5303 1.42107 18.2826 0.85355 16.8561C0.286031 15.4296 0.00454458 13.8949 0.00454458 12.2605L0 12.2438Z" fill="white"/>
<path d="M24.6118 0.449219C25.8104 0.449219 26.9364 0.756977 27.9942 1.37665C29.0521 1.99633 29.9737 2.84059 30.7546 3.90527C31.5401 4.97411 32.153 6.22594 32.6025 7.66493C33.0474 9.10391 33.2744 10.6302 33.2744 12.2481C33.2744 13.8659 33.0519 15.4171 32.6025 16.8437C32.1575 18.2702 31.5401 19.5178 30.7546 20.5867C29.9692 21.6555 29.0476 22.4998 27.9942 23.1153C26.9364 23.735 25.8104 24.0427 24.6118 24.0427C23.4132 24.0427 22.2918 23.735 21.243 23.1153C20.1988 22.4956 19.2817 21.6514 18.4962 20.5867C17.7108 19.5178 17.0888 18.2702 16.6348 16.8437C16.1762 15.4171 15.9492 13.8825 15.9492 12.2481C15.9492 10.6136 16.1762 9.10391 16.6348 7.66493C17.0933 6.22594 17.7153 4.97411 18.4962 3.90527C19.2817 2.83643 20.1943 1.99217 21.243 1.37665C22.2873 0.756977 23.4132 0.449219 24.6118 0.449219ZM24.6118 23.6268C25.6152 23.6268 26.5459 23.3274 27.4085 22.7285C28.2712 22.1296 29.0112 21.3145 29.6332 20.2872C30.2552 19.26 30.7456 18.0581 31.1042 16.6773C31.4629 15.3007 31.6445 13.8243 31.6445 12.2439C31.6445 10.6635 31.4629 9.19125 31.1042 7.81049C30.7456 6.43389 30.2552 5.23196 29.6332 4.20055C29.0112 3.1733 28.2712 2.35816 27.4085 1.75927C26.5459 1.16039 25.6152 0.860947 24.6118 0.860947C23.6085 0.860947 22.6823 1.16039 21.8333 1.75927C20.9843 2.35816 20.2442 3.1733 19.6086 4.20055C18.9775 5.2278 18.4826 6.42973 18.1194 7.81049C17.7608 9.18709 17.5791 10.6635 17.5791 12.2439C17.5791 13.8243 17.7608 15.2965 18.1194 16.6773C18.4781 18.0539 18.973 19.2558 19.6086 20.2872C20.2397 21.3145 20.9797 22.1296 21.8333 22.7285C22.6823 23.3274 23.6085 23.6268 24.6118 23.6268Z" fill="white"/>
<path d="M35 12.2438C35 10.6094 35.2815 9.07475 35.849 7.64824C36.4165 6.22173 37.1883 4.97406 38.169 3.90522C39.1497 2.83638 40.2938 1.99212 41.6014 1.3766C42.9089 0.756921 44.3028 0.449163 45.7874 0.449163H48.0121C48.1846 0.449163 48.3163 0.403412 48.4025 0.316075C48.4888 0.224579 48.5341 0.120608 48.5341 0H48.6341L51.1493 2.57437L51.0857 2.60348C50.6953 2.22502 50.2957 1.92142 49.8916 1.68852C49.4876 1.45978 49.1017 1.28511 48.7294 1.1645C48.3571 1.04389 48.012 0.964868 47.6851 0.923279C47.3582 0.88169 47.0768 0.865055 46.8362 0.865055H46.4094C45.0383 0.865055 43.7489 1.16449 42.5503 1.76338C41.3517 2.36226 40.3165 3.17741 39.4448 4.20466C38.5731 5.23191 37.8875 6.43384 37.3836 7.8146C36.8842 9.1912 36.6299 10.6676 36.6299 12.248C36.6299 13.8284 36.8796 15.3006 37.3836 16.6814C37.883 18.058 38.5731 19.2599 39.4448 20.2913C40.3165 21.3186 41.3517 22.1337 42.5503 22.7326C43.7489 23.3315 45.0337 23.6309 46.4094 23.6309C47.4128 23.6309 48.3707 23.4729 49.2878 23.1527C50.2049 22.8324 51.0539 22.3833 51.8394 21.8052L51.8712 21.8967C50.9995 22.5746 50.046 23.1028 49.0109 23.4854C47.9757 23.8638 46.8679 24.0552 45.692 24.0552C44.2301 24.0552 42.8499 23.7474 41.5423 23.1277C40.2348 22.508 39.0997 21.6638 38.1418 20.5991C37.1838 19.5303 36.4211 18.2826 35.8535 16.8561C35.286 15.4296 35.0045 13.8949 35.0045 12.2605L35 12.2438Z" fill="white"/>
<path d="M64.5168 0.447141C64.6485 0.447141 64.7575 0.40139 64.8437 0.314053C64.93 0.222557 64.9754 0.131064 64.9754 0.03125H65.039L65.3659 2.5765L65.266 2.60561C65.1797 2.08575 64.9027 1.6657 64.4306 1.34962C63.9629 1.02939 63.4454 0.871346 62.8779 0.871346H56.567C56.2629 0.871346 56.0177 0.967004 55.8315 1.15416C55.6454 1.34547 55.5546 1.57837 55.5546 1.85701V12.038H61.2752C61.7746 12.038 62.1787 11.8634 62.4829 11.514C62.7871 11.1647 62.9414 10.7612 62.9414 10.2996H63.0413V14.1632H62.9414C62.9414 13.7058 62.7871 13.3065 62.4829 12.9655C62.1787 12.6244 61.7746 12.4581 61.2752 12.4581H55.5546V22.6391C55.5546 22.9177 55.659 23.1548 55.8633 23.342C56.0676 23.5291 56.3264 23.6248 56.6306 23.6248H64.0855C64.653 23.6248 65.1797 23.4667 65.67 23.1465C66.1603 22.8263 66.4282 22.4104 66.4691 21.8905L66.569 21.9196L66.2421 24.494H66.1786C66.1786 24.3734 66.1331 24.2694 66.0469 24.1779C65.9606 24.0864 65.8517 24.0448 65.72 24.0448H52.2539V23.9533C52.776 23.9533 53.2164 23.7953 53.5796 23.475C53.9383 23.1548 54.1199 22.768 54.1199 22.3064V2.18556C54.1199 1.68649 53.9383 1.28308 53.5796 0.971162C53.221 0.659244 52.7806 0.505366 52.2539 0.505366V0.447141H64.5123H64.5168Z" fill="white"/>
<path d="M65.6289 0.507443V0.449219H70.3053V0.507443C70.0647 0.528238 69.8603 0.58646 69.6833 0.686273C69.5289 0.765293 69.4063 0.881743 69.3064 1.03146C69.2065 1.18118 69.1929 1.39745 69.2565 1.6761L74.75 20.8404L80.0121 2.60353C80.1211 2.20428 80.2754 1.84661 80.4707 1.52638C80.6659 1.24773 80.9292 0.998192 81.2561 0.77777C81.583 0.557348 81.9961 0.449219 82.5001 0.449219V2.60353H82.4002C82.4002 2.36232 82.3139 2.16269 82.1369 2.00465C81.9643 1.84661 81.7555 1.76343 81.5149 1.76343C81.2515 1.76343 81.0291 1.84661 80.8429 2.01712C80.6568 2.18764 80.5342 2.38311 80.4661 2.59938L74.3869 23.7682C74.3006 24.0469 74.1917 24.3339 74.06 24.6208C73.9283 24.9119 73.7785 25.1698 73.6014 25.3985C73.4289 25.6273 73.2155 25.8186 72.9658 25.9683C72.7161 26.118 72.4392 26.1929 72.1304 26.1929C71.8489 26.1929 71.631 26.1263 71.4766 25.9974C71.3223 25.8685 71.2496 25.7146 71.2496 25.5316C71.2496 25.3736 71.3177 25.228 71.463 25.0991C71.6037 24.9702 71.7626 24.9036 71.9352 24.9036C72.1758 24.9036 72.3619 24.9785 72.4891 25.1282C72.6207 25.2779 72.6752 25.4526 72.6525 25.6522C72.825 25.5524 72.9885 25.4152 73.1429 25.2488C73.2927 25.0783 73.4244 24.8953 73.5333 24.6957C73.665 24.4753 73.7875 24.1925 73.9101 23.8431C74.0327 23.4938 74.0463 23.1694 73.9601 22.8699L67.9762 2.15021C67.9535 2.10862 67.9035 2.00049 67.8309 1.82165C67.7537 1.64282 67.622 1.45151 67.4404 1.25189C67.2543 1.05226 67.0137 0.877586 66.7231 0.727865C66.428 0.578144 66.0648 0.50328 65.6289 0.50328V0.507443Z" fill="white"/>
<path d="M88.0528 0.449219V0.507443C87.5307 0.507443 87.0902 0.665479 86.727 0.985716C86.3684 1.30595 86.1868 1.69273 86.1868 2.15437V22.637C86.1868 22.9157 86.2912 23.1527 86.4955 23.3399C86.6998 23.527 86.9586 23.6227 87.2628 23.6227H93.5372C94.1048 23.6019 94.6224 23.4314 95.09 23.1153C95.5576 22.7951 95.8346 22.3875 95.9254 21.8884H96.0253L95.6984 24.4628H95.6348C95.6348 24.363 95.5849 24.2673 95.4895 24.18C95.3896 24.0885 95.2897 24.0469 95.1808 24.0469H82.8906V23.9554C83.4127 23.9554 83.8532 23.8015 84.2164 23.4896C84.575 23.1818 84.7566 22.7867 84.7566 22.3085V2.18764C84.7566 1.70937 84.575 1.31011 84.2164 0.989872C83.8577 0.669636 83.4173 0.5116 82.8906 0.5116V0.453375H88.0573L88.0528 0.449219Z" fill="white"/>
<path d="M103.745 0.449219C104.943 0.449219 106.069 0.756977 107.127 1.37665C108.185 1.99633 109.107 2.84059 109.887 3.90527C110.673 4.97411 111.286 6.22594 111.735 7.66493C112.18 9.10391 112.407 10.6302 112.407 12.2481C112.407 13.8659 112.185 15.4171 111.735 16.8437C111.29 18.2702 110.673 19.5178 109.887 20.5867C109.102 21.6555 108.18 22.4998 107.127 23.1153C106.069 23.735 104.943 24.0427 103.745 24.0427C102.546 24.0427 101.425 23.735 100.376 23.1153C99.3316 22.4956 98.4145 21.6514 97.629 20.5867C96.8436 19.5178 96.2216 18.2702 95.7676 16.8437C95.309 15.4171 95.082 13.8825 95.082 12.2481C95.082 10.6136 95.309 9.10391 95.7676 7.66493C96.2262 6.22594 96.8481 4.97411 97.629 3.90527C98.4145 2.83643 99.3271 1.99217 100.376 1.37665C101.42 0.756977 102.546 0.449219 103.745 0.449219ZM103.745 23.6268C104.748 23.6268 105.679 23.3274 106.541 22.7285C107.404 22.1296 108.144 21.3145 108.766 20.2872C109.388 19.26 109.878 18.0581 110.237 16.6773C110.596 15.3007 110.777 13.8243 110.777 12.2439C110.777 10.6635 110.596 9.19125 110.237 7.81049C109.878 6.43389 109.388 5.23196 108.766 4.20055C108.144 3.1733 107.404 2.35816 106.541 1.75927C105.679 1.16039 104.748 0.860947 103.745 0.860947C102.741 0.860947 101.815 1.16039 100.966 1.75927C100.117 2.35816 99.377 3.1733 98.7414 4.20055C98.1103 5.2278 97.6154 6.42973 97.2522 7.81049C96.8936 9.18709 96.712 10.6635 96.712 12.2439C96.712 13.8243 96.8936 15.2965 97.2522 16.6773C97.6109 18.0539 98.1058 19.2558 98.7414 20.2872C99.3725 21.3145 100.113 22.1296 100.966 22.7285C101.815 23.3274 102.741 23.6268 103.745 23.6268Z" fill="white"/>
<path d="M129.242 0.449219V0.540715C128.742 0.540715 128.307 0.686274 127.934 0.973239C127.562 1.26436 127.38 1.63866 127.38 2.09614V24.0469H126.922L115.154 2.12942V22.4332C115.154 22.8907 115.34 23.265 115.708 23.5561C116.08 23.8473 116.516 23.9887 117.015 23.9887V24.0469H112.798V23.9887C113.297 23.9887 113.733 23.8431 114.105 23.5561C114.477 23.265 114.659 22.8907 114.659 22.4332V2.1918C114.659 1.71352 114.477 1.31843 114.119 1.01067C113.76 0.702909 113.32 0.544872 112.793 0.544872V0.453375H115.635L126.913 21.4725V2.06704C126.913 1.60956 126.722 1.23941 126.341 0.960763C125.959 0.682116 125.519 0.540715 125.015 0.540715V0.449219H129.233H129.242Z" fill="white"/>
</svg>
