<svg width="902" height="200" viewBox="0 0 902 200" fill="none" xmlns="http://www.w3.org/2000/svg">
<path d="M0 119.619C0 110.289 1.48317 101.545 4.43757 93.3998C7.39197 85.2663 11.4348 78.1494 16.5662 72.0492C21.6855 65.961 27.6661 61.1526 34.4959 57.6241C41.3257 54.0956 48.61 52.3253 56.3608 52.3253H67.9751C68.8841 52.3253 69.5659 52.0741 70.0205 51.5598C70.475 51.0455 70.7022 50.4474 70.7022 49.7656H71.2166L84.3618 64.4539L84.015 64.6214C81.9696 62.4564 79.8884 60.722 77.7832 59.4063C75.6781 58.1025 73.6566 57.0978 71.7189 56.416C69.7812 55.7342 67.9631 55.2797 66.2527 55.0524C64.5422 54.8252 63.0591 54.7056 61.8151 54.7056H59.5904C52.4137 54.7056 45.7035 56.416 39.4358 59.8249C33.1682 63.2339 27.7618 67.8867 23.2166 73.7477C18.6594 79.6086 15.083 86.4743 12.4515 94.3328C9.82009 102.191 8.52829 110.612 8.52829 119.607C8.52829 128.601 9.83205 137.022 12.4515 144.881C15.071 152.739 18.6594 159.593 23.2166 165.454C27.7737 171.315 33.1802 175.956 39.4358 179.376C45.6915 182.797 52.4137 184.496 59.5904 184.496C64.8293 184.496 69.841 183.587 74.6135 181.757C79.398 179.939 83.8355 177.379 87.9382 174.078L88.1057 174.592C83.5485 178.467 78.5726 181.482 73.1662 183.647C67.7598 185.812 61.9826 186.888 55.8345 186.888C48.2033 186.888 40.9788 185.13 34.149 181.589C27.3192 178.061 21.3984 173.252 16.3867 167.164C11.375 161.076 7.39197 153.959 4.43757 145.814C1.47121 137.68 0 128.936 0 119.595V119.619Z" fill="#231F20"/>
<path d="M129.05 52.3262C135.306 52.3262 141.202 54.0964 146.729 57.625C152.255 61.1535 157.063 65.9619 161.154 72.0501C165.256 78.1383 168.474 85.291 170.806 93.4844C173.139 101.678 174.311 110.386 174.311 119.608C174.311 128.83 173.139 137.681 170.806 145.826C168.474 153.972 165.256 161.089 161.154 167.177C157.051 173.265 152.243 178.086 146.729 181.602C141.202 185.131 135.318 186.901 129.05 186.901C122.782 186.901 116.921 185.143 111.455 181.602C105.989 178.074 101.204 173.265 97.1138 167.177C93.0111 161.089 89.7696 153.972 87.3774 145.826C84.9852 137.693 83.7891 128.949 83.7891 119.608C83.7891 110.266 84.9852 101.678 87.3774 93.4844C89.7696 85.291 93.0111 78.1383 97.1138 72.0501C101.216 65.9619 105.989 61.1535 111.455 57.625C116.921 54.0964 122.782 52.3262 129.05 52.3262ZM129.05 184.509C134.289 184.509 139.157 182.798 143.655 179.389C148.152 175.968 152.027 171.339 155.269 165.467C158.51 159.606 161.07 152.74 162.96 144.893C164.838 137.035 165.783 128.614 165.783 119.619C165.783 110.625 164.838 102.204 162.96 94.3456C161.082 86.4872 158.522 79.6334 155.269 73.7605C152.027 67.8996 148.152 63.2586 143.655 59.8378C139.157 56.4169 134.289 54.7184 129.05 54.7184C123.811 54.7184 118.979 56.4288 114.529 59.8378C110.08 63.2467 106.216 67.8996 102.915 73.7605C99.6137 79.6215 97.0181 86.4872 95.1402 94.3456C93.2623 102.204 92.3293 110.625 92.3293 119.619C92.3293 128.614 93.2623 137.035 95.1402 144.893C97.0181 152.752 99.6137 159.606 102.915 165.467C106.216 171.327 110.092 175.968 114.529 179.389C118.967 182.81 123.811 184.509 129.05 184.509Z" fill="#231F20"/>
<path d="M179.008 119.619C179.008 110.289 180.491 101.545 183.445 93.3998C186.4 85.2663 190.443 78.1494 195.574 72.0492C200.693 65.961 206.674 61.1526 213.504 57.6241C220.334 54.0956 227.618 52.3253 235.369 52.3253H246.983C247.892 52.3253 248.574 52.0741 249.028 51.5598C249.483 51.0455 249.71 50.4474 249.71 49.7656H250.224L263.37 64.4539L263.023 64.6214C260.977 62.4564 258.896 60.722 256.791 59.4063C254.686 58.1025 252.664 57.0978 250.727 56.416C248.789 55.7342 246.971 55.2797 245.26 55.0524C243.55 54.8252 242.067 54.7056 240.823 54.7056H238.598C231.421 54.7056 224.711 56.416 218.444 59.8249C212.176 63.2339 206.77 67.8867 202.224 73.7477C197.667 79.6086 194.091 86.4743 191.459 94.3328C188.828 102.191 187.536 110.612 187.536 119.607C187.536 128.601 188.84 137.022 191.459 144.881C194.079 152.739 197.667 159.593 202.224 165.454C206.782 171.315 212.188 175.956 218.444 179.376C224.699 182.797 231.421 184.496 238.598 184.496C243.837 184.496 248.849 183.587 253.621 181.757C258.406 179.939 262.843 177.379 266.946 174.078L267.113 174.592C262.556 178.467 257.58 181.482 252.174 183.647C246.768 185.812 240.99 186.888 234.842 186.888C227.211 186.888 219.987 185.13 213.157 181.589C206.327 178.061 200.406 173.252 195.395 167.164C190.383 161.076 186.4 153.959 183.445 145.814C180.479 137.68 179.008 128.936 179.008 119.595V119.619Z" fill="#231F20"/>
<path d="M406.859 119.853C406.859 110.523 408.343 101.78 411.297 93.6342C414.251 85.5006 418.294 78.3838 423.426 72.2836C428.545 66.1954 434.525 61.387 441.355 57.8585C448.185 54.3299 455.469 52.5597 463.22 52.5597H474.834C475.743 52.5597 476.425 52.3085 476.88 51.7942C477.334 51.2798 477.562 50.6818 477.562 50H478.076L491.221 64.6883L490.874 64.8557C488.829 62.6908 486.748 60.9564 484.643 59.6407C482.537 58.3369 480.516 57.3322 478.578 56.6504C476.641 55.9686 474.822 55.5141 473.112 55.2868C471.402 55.0596 469.918 54.9399 468.674 54.9399H466.45C459.273 54.9399 452.563 56.6504 446.295 60.0593C440.028 63.4682 434.621 68.1211 430.076 73.9821C425.519 79.843 421.942 86.7087 419.311 94.5672C416.679 102.426 415.388 110.846 415.388 119.841C415.388 128.836 416.691 137.256 419.311 145.115C421.93 152.973 425.519 159.827 430.076 165.688C434.633 171.549 440.04 176.19 446.295 179.611C452.551 183.032 459.273 184.73 466.45 184.73C471.689 184.73 476.7 183.821 481.473 181.991C486.257 180.173 490.695 177.613 494.798 174.312L494.965 174.826C490.408 178.702 485.432 181.716 480.026 183.881C474.619 186.046 468.842 187.122 462.694 187.122C455.063 187.122 447.838 185.364 441.008 181.824C434.179 178.295 428.258 173.487 423.246 167.398C418.234 161.31 414.251 154.193 411.297 146.048C408.331 137.914 406.859 129.171 406.859 119.829V119.853Z" fill="#231F20"/>
<path d="M559.321 52.5592C560.002 52.5592 560.577 52.308 561.031 51.7937C561.486 51.2794 561.713 50.7411 561.713 50.167H562.06L563.77 64.6878L563.256 64.8553C562.801 61.9009 561.342 59.5086 558.902 57.6786C556.45 55.8605 553.747 54.9514 550.792 54.9514H517.827C516.237 54.9514 514.957 55.4897 513.988 56.5782C513.019 57.6666 512.541 58.9943 512.541 60.5971V118.656H542.432C545.051 118.656 547.156 117.664 548.747 115.666C550.338 113.681 551.139 111.372 551.139 108.753H551.654V130.785H551.139C551.139 128.166 550.338 125.893 548.747 123.955C547.156 122.018 545.051 121.049 542.432 121.049H512.541V179.108C512.541 180.699 513.079 182.038 514.167 183.127C515.244 184.215 516.584 184.754 518.186 184.754H557.12C560.074 184.754 562.837 183.845 565.409 182.015C567.969 180.196 569.368 177.804 569.595 174.838L570.11 175.005L568.399 189.694H568.052C568.052 189.012 567.825 188.414 567.37 187.899C566.916 187.385 566.342 187.134 565.66 187.134H495.305V186.62C498.044 186.62 500.34 185.711 502.218 183.88C504.096 182.062 505.041 179.838 505.041 177.218V62.4511C505.041 59.6043 504.096 57.2958 502.218 55.5375C500.34 53.7792 498.032 52.8941 495.305 52.8941V52.5472H559.345L559.321 52.5592Z" fill="#231F20"/>
<path d="M566.32 52.9064V52.5596H590.745V52.9064C589.489 53.026 588.413 53.361 587.503 53.9351C586.702 54.3896 586.056 55.0475 585.542 55.8967C585.028 56.746 584.944 57.978 585.291 59.5688L613.985 168.87L641.484 64.8676C642.046 62.595 642.848 60.5376 643.876 58.7195C644.905 57.1287 646.269 55.7054 647.979 54.4494C649.689 53.1935 651.854 52.5715 654.474 52.5715V64.8676H653.96C653.96 63.504 653.505 62.3677 652.596 61.4467C651.687 60.5376 650.598 60.0831 649.354 60.0831C647.991 60.0831 646.819 60.5735 645.85 61.5304C644.881 62.4993 644.223 63.6117 643.888 64.8556L612.119 185.591C611.665 187.182 611.091 188.809 610.409 190.459C609.727 192.11 608.926 193.593 608.017 194.897C607.108 196.201 605.995 197.289 604.692 198.139C603.388 198.988 601.929 199.418 600.338 199.418C598.855 199.418 597.718 199.048 596.929 198.306C596.127 197.564 595.733 196.679 595.733 195.663C595.733 194.754 596.104 193.928 596.845 193.187C597.587 192.445 598.412 192.074 599.321 192.074C600.577 192.074 601.546 192.505 602.228 193.354C602.909 194.203 603.196 195.208 603.077 196.344C603.986 195.77 604.835 195.005 605.637 194.036C606.426 193.067 607.12 192.014 607.682 190.878C608.364 189.622 609.022 187.995 609.644 186.01C610.266 184.024 610.349 182.17 609.895 180.46L578.64 62.284C578.521 62.0567 578.269 61.4347 577.875 60.4061C577.468 59.3774 576.786 58.3009 575.829 57.1646C574.861 56.0283 573.605 55.0355 572.074 54.1743C570.543 53.3251 568.629 52.8945 566.356 52.8945L566.32 52.9064Z" fill="#231F20"/>
<path d="M685.925 52.5596V52.9064C683.198 52.9064 680.89 53.8155 679.012 55.6336C677.134 57.4517 676.201 59.6764 676.201 62.2959V179.108C676.201 180.699 676.739 182.039 677.828 183.127C678.904 184.216 680.244 184.754 681.847 184.754H714.632C717.587 184.646 720.29 183.677 722.742 181.847C725.182 180.029 726.641 177.697 727.096 174.85H727.61L725.9 189.538H725.553C725.553 188.964 725.302 188.426 724.787 187.912C724.273 187.397 723.735 187.146 723.16 187.146H658.953V186.632C661.692 186.632 663.989 185.747 665.867 183.988C667.745 182.23 668.69 179.97 668.69 177.242V62.4753C668.69 59.7482 667.745 57.4636 665.867 55.6455C663.989 53.8275 661.68 52.9184 658.953 52.9184V52.5715H685.937L685.925 52.5596Z" fill="#231F20"/>
<path d="M768.472 52.5596C774.727 52.5596 780.624 54.3298 786.15 57.8583C791.676 61.3869 796.485 66.1952 800.576 72.2835C804.678 78.3717 807.896 85.5245 810.228 93.7178C812.561 101.911 813.733 110.619 813.733 119.841C813.733 129.063 812.561 137.914 810.228 146.06C807.896 154.205 804.678 161.322 800.576 167.41C796.473 173.499 791.664 178.319 786.15 181.835C780.624 185.364 774.739 187.134 768.472 187.134C762.204 187.134 756.343 185.376 750.877 181.835C745.411 178.307 740.626 173.499 736.536 167.41C732.433 161.322 729.192 154.205 726.799 146.06C724.407 137.926 723.211 129.183 723.211 119.841C723.211 110.499 724.407 101.911 726.799 93.7178C729.192 85.5245 732.433 78.3717 736.536 72.2835C740.638 66.1952 745.411 61.3869 750.877 57.8583C756.343 54.3298 762.204 52.5596 768.472 52.5596ZM768.472 184.742C773.711 184.742 778.579 183.032 783.076 179.623C787.574 176.202 791.449 171.573 794.691 165.7C797.932 159.839 800.492 152.973 802.382 145.127C804.26 137.268 805.204 128.848 805.204 119.853C805.204 110.858 804.26 102.437 802.382 94.579C800.504 86.7205 797.944 79.8668 794.691 73.9939C791.449 68.133 787.574 63.492 783.076 60.0712C778.579 56.6503 773.711 54.9518 768.472 54.9518C763.233 54.9518 758.401 56.6622 753.951 60.0712C749.502 63.4801 745.638 68.133 742.337 73.9939C739.036 79.8549 736.44 86.7205 734.562 94.579C732.684 102.437 731.751 110.858 731.751 119.853C731.751 128.848 732.684 137.268 734.562 145.127C736.44 152.985 739.036 159.839 742.337 165.7C745.638 171.561 749.513 176.202 753.951 179.623C758.389 183.044 763.233 184.742 768.472 184.742Z" fill="#231F20"/>
<path d="M901.264 52.5596V53.0739C898.645 53.0739 896.372 53.8992 894.434 55.5499C892.497 57.2005 891.528 59.3415 891.528 61.949V187.134H889.136L827.655 62.1285V177.912C827.655 180.532 828.624 182.673 830.562 184.311C832.5 185.962 834.772 186.787 837.392 186.787V187.134H815.359V186.787C817.979 186.787 820.252 185.962 822.189 184.311C824.127 182.661 825.096 180.532 825.096 177.912V62.4634C825.096 59.7362 824.151 57.4876 822.273 55.7173C820.395 53.959 818.087 53.0739 815.359 53.0739V52.5596H830.215L889.136 172.446V61.7816C889.136 59.1621 888.143 57.0569 886.145 55.4661C884.148 53.8753 881.851 53.0739 879.232 53.0739V52.5596H901.264Z" fill="#231F20"/>
<path d="M358.223 46.9624C365.774 49.4418 372.05 54.8034 377.115 60.816C389.792 76.1262 395.323 96.9531 392.744 116.571C389.046 140.807 369.844 158.225 352.91 174.248C351.17 175.953 349.492 177.657 348.032 179.579C347.162 180.818 346.509 182.151 345.484 183.298C342.19 187.296 337.933 186.955 333.459 185.343C329.482 183.949 325.691 182.306 321.652 181.252C314.66 179.424 311.988 175.612 308.943 169.506C306.799 165.198 304.158 161.2 300.554 157.977C287.783 147.471 278.741 132.129 277.032 115.579C275.261 98.8746 282.532 82.6656 292.289 69.4938C302.884 55.2683 317.892 43.1813 335.696 39.8031L338.648 39.3692L341.6 39.0903C340.077 39.6792 338.896 40.8569 337.716 41.9106C334.236 45.2578 331.284 49.1628 328.829 53.2848C326.809 56.725 325.132 60.3821 323.982 64.1941C323.267 66.4876 322.832 68.812 322.49 71.1984L321.279 70.9815C324.821 56.8179 339.735 40.9498 355.458 43.9871C355.458 43.9871 356.573 44.2226 356.266 44.483C340.388 42.3135 327.307 57.6547 322.459 71.2604L321.248 71.0434C321.279 69.3699 321.434 67.7273 321.714 66.0847C323.267 57.9027 327.711 50.4645 333.521 44.6069C334.671 43.4292 335.914 42.3445 337.25 41.3527C338.586 40.392 339.953 39.3692 341.6 39.0283C322.863 41.5387 307.079 53.8117 295.893 68.4401C288.342 78.4196 282.19 90.0108 280.046 102.377C279.114 108.048 279.207 113.906 280.233 119.578C282.874 133.834 291.077 146.913 302.263 156.118C304.531 158.194 306.52 160.549 308.197 163.122C309.285 164.826 310.248 166.624 311.149 168.391C312.858 171.769 314.536 175.178 317.83 177.13C319.383 178.122 321.248 178.68 323.019 179.176C324.945 179.734 326.841 180.385 328.705 181.097C331.47 182.12 334.111 183.298 336.939 183.949C339.673 184.6 342.066 184.042 343.837 181.81C344.769 180.756 345.453 179.362 346.323 178.246C347.845 176.232 349.678 174.434 351.481 172.698C365.68 159.434 380.937 145.952 388.301 127.543C397.094 104.887 390.351 75.4134 373.914 57.7787C369.471 53.1608 364.282 49.0699 358.223 46.9624Z" fill="black"/>
<path d="M372.997 32.039C371.562 32.4688 370.519 32.4079 369.83 31.9751C367.245 30.3577 369.302 23.4715 372.305 16.4583L373.778 12.9454L371.321 15.9303C361.416 27.6717 354.365 28.5707 354.611 11.4134C354.657 7.99273 354.957 4.56803 355.313 1.14489L354.182 0.950808C350.434 15.1364 342.696 34.6411 333.757 9.39975L332.546 5.78162C332.619 9.43436 332.785 13.4928 332.492 17.1029C332.233 19.4499 332 22.1353 330.604 24.0918C327.484 27.7998 321.571 18.8672 320.071 16.5925C320.071 16.5925 318.668 14.157 318.656 14.1567L319.005 16.9451L321.36 36.0036L321.548 37.1094L322.678 36.9329C335.958 34.546 347.807 33.3082 360.417 39.12C364.458 40.8422 368.351 42.9418 372.28 44.9661C375.39 39.9283 382.382 27.2254 382.382 27.2254C382.382 27.2254 375.127 31.4101 373.009 32.0393L372.997 32.039ZM323.442 34.5997C323.131 32.9348 321.277 22.9676 320.605 19.375C322.85 22.5416 326.118 26.4987 329.587 26.0368C333.512 24.8352 333.785 17.6937 333.769 12.7784C338.935 25.5378 346.219 27.0535 352.125 11.1827C352.681 9.7265 353.169 8.24671 353.646 6.7666C352.999 16.2193 353.346 30.5701 364.398 23.96C366.491 22.5781 368.281 20.9264 369.947 19.1625C367.761 24.8683 366.898 30.0322 368.655 32.1395C369.5 33.154 370.915 33.4757 373.184 32.7742C375.13 32.1621 381.486 28.1057 381.486 28.1057C378.594 32.7135 374.664 39.1894 371.974 43.9662C368.343 41.9717 364.725 39.8904 360.903 38.1306C348.508 31.9976 336.652 32.6685 323.453 34.6L323.442 34.5997Z" fill="#191919"/>
<path d="M305.375 102.835C304.297 103.428 303.483 103.909 302.648 104.326C300.011 105.641 298.045 106.871 295.99 107.614C293.934 108.357 291.974 107.78 291.181 106.454C289.87 104.257 289.453 103.343 288.285 101.076C287.059 98.6974 288.275 97.4252 291.276 96.1262C294.41 94.7738 297.993 92.3522 300.825 90.0055C308.212 84.2857 310.347 80.4636 310.886 79.6083C312.424 77.1653 314.126 77.0263 315.616 79.4693C317.312 82.2543 318.797 85.1784 320.255 88.1024C320.858 89.2518 320.462 90.1177 320.229 90.6416C319.04 93.3411 317.619 96.8051 317.148 98.8739C315.526 106.069 314.839 110.452 313.1 117.616C311.024 126.169 308.218 134.492 304.762 142.58C304.249 143.777 303.472 144.91 302.611 145.889C301.538 147.107 299.937 146.867 299.071 145.472C297.723 143.291 296.391 141.094 295.128 138.864C293.961 136.806 294.315 134.893 295.604 132.974C296.576 131.525 297.274 129.846 297.882 128.189C300.746 120.353 305.301 103.53 305.369 102.83L305.375 102.835Z" fill="white"/>
<path d="M305.161 102.845C303.763 103.721 301.827 104.839 300.371 105.598C297.891 106.859 295.132 108.963 292.225 107.808C291.508 107.518 290.896 106.938 290.521 106.252L290.157 105.646C289.45 104.475 288.77 103.141 288.131 101.928C286.253 98.8794 287.498 97.255 290.474 95.9049C292.204 95.1719 293.813 94.3175 295.391 93.3313C298.529 91.3484 301.463 88.991 304.285 86.602C306.369 84.7614 308.358 82.7837 309.94 80.4949C310.695 79.3821 311.597 77.7051 313.211 77.7051C314.836 77.8264 315.553 79.4613 316.292 80.6637C317.68 82.9894 319.019 85.6896 320.254 88.1155C320.776 88.9857 320.623 90.1301 320.159 90.9687C319.056 93.5212 317.975 96.137 317.368 98.853C314.889 112.697 311.903 126.567 306.385 139.567C305.556 141.571 304.781 143.659 303.32 145.294C302.808 145.948 302.085 146.57 301.173 146.66C299.949 146.818 298.814 145.99 298.276 144.978L295.385 140.142L294.663 138.934C293.829 137.668 293.449 135.938 293.908 134.451C294.462 132.579 295.865 131.224 296.541 129.409C297.284 127.732 297.907 125.96 298.535 124.204C300.946 117.19 303.225 110.023 305.166 102.861L305.161 102.845ZM305.287 102.655C304.612 105.841 303.299 110.471 302.47 113.651C301.489 117.269 300.481 120.882 299.363 124.468C298.398 127.59 297.343 130.817 295.496 133.56C294.631 135.068 294.726 136.872 295.733 138.296L296.461 139.493L299.379 144.276C299.511 144.492 299.595 144.63 299.722 144.761C300.529 145.69 301.616 145.394 302.275 144.419C303.641 142.858 304.327 140.917 305.108 139.034C306.527 135.585 307.82 132.083 309.012 128.55C312.103 119.732 313.802 110.503 315.939 101.406C316.334 99.8128 316.925 97.466 317.579 95.984C318.291 94.2384 319.041 92.5192 319.811 90.8105C320.238 89.9877 320.381 89.1176 319.906 88.2949C318.655 85.89 317.305 83.1951 315.912 80.8904C315.422 80.0941 314.984 79.2503 314.314 78.6913C312.636 77.2568 311.233 79.4929 310.463 80.8272C308.896 83.2004 306.907 85.2624 304.823 87.1821C302.001 89.703 299.078 92.0762 295.897 94.1118C294.309 95.1191 292.61 96.0526 290.885 96.7751C288.395 97.909 287.335 98.9215 288.928 101.516C289.551 102.729 290.21 104.053 290.896 105.218C291.328 105.973 291.692 106.743 292.547 107.101C295.169 108.188 297.801 106.168 300.144 105.15C301.642 104.433 303.842 103.33 305.293 102.655H305.287Z" fill="black"/>
</svg>
